<svg width="335" height="284" viewBox="0 0 335 284" fill="none" xmlns="http://www.w3.org/2000/svg">
<g clip-path="url(#clip0_38_3)">
<path d="M322.942 232.388H12.0579C5.4093 232.388 0 226.974 0 220.319V182.868H335V220.319C335 226.974 329.591 232.388 322.942 232.388Z" fill="#96C6EE"/>
<path d="M207.736 226.124H128.456V282.804H207.736V226.124Z" fill="#96C6EE"/>
<path d="M20 277.5C20 280.551 20 283 20 283H315C315 283 315 280.5 315 277.5C315 274.45 314 272.5 311 272.5L24 272C21 272 20 274.45 20 277.5Z" fill="#3F3D56"/>
<path d="M20 215.5C20 217.441 21.6289 219 22 219H313C313.371 219 315 217.441 315 215.5C315 213.559 313.371 212 313 212H22C21.6289 212 20 213.559 20 215.5Z" fill="#3F3D56"/>
<path d="M335 201H0V8.37913C0 3.75897 3.71545 0 8.28212 0H326.718C331.285 0 335 3.75897 335 8.37913V201Z" fill="#3F3D56"/>
<path d="M326.655 8.65112H7.74927V188.237H326.655V8.65112Z" fill="#FAFAFA"/>
<mask id="mask0_38_3" style="mask-type:luminance" maskUnits="userSpaceOnUse" x="202" y="102" width="125" height="86">
<path d="M327 102H202V188H327V102Z" fill="white"/>
</mask>
<g mask="url(#mask0_38_3)">
<path d="M324.869 151.339V186.906H238.135C233.544 187.07 229.078 185.353 225.719 182.134C222.36 178.915 220.383 174.457 220.224 169.741C220.064 165.024 221.735 160.436 224.868 156.985C228.001 153.534 232.341 151.503 236.931 151.339C237.333 151.325 237.734 151.325 238.136 151.339H324.869Z" fill="#F2F2F2"/>
<path d="M327 186.632C327 186.995 326.859 187.343 326.61 187.6C326.36 187.856 326.021 188.001 325.668 188.001H236.591C231.753 188.001 227.113 186.026 223.692 182.511C220.271 178.997 218.349 174.23 218.349 169.26C218.349 164.289 220.271 159.523 223.692 156.008C227.113 152.493 231.753 150.519 236.591 150.519H325.669C325.848 150.513 326.026 150.543 326.193 150.609C326.36 150.675 326.512 150.775 326.64 150.903C326.769 151.03 326.871 151.183 326.941 151.352C327.011 151.521 327.047 151.703 327.047 151.887C327.047 152.07 327.011 152.252 326.941 152.421C326.871 152.59 326.769 152.743 326.64 152.871C326.512 152.999 326.36 153.098 326.193 153.164C326.026 153.23 325.848 153.261 325.669 153.255H236.591C232.468 153.269 228.519 154.961 225.609 157.961C222.698 160.961 221.064 165.024 221.064 169.259C221.064 173.495 222.698 177.558 225.609 180.558C228.519 183.558 232.468 185.25 236.591 185.264H325.669C326.022 185.265 326.36 185.409 326.61 185.665C326.859 185.922 327 186.269 327 186.632Z" fill="#133D86"/>
<path d="M324.87 159.547H231.665C231.594 159.548 231.526 159.519 231.476 159.469C231.426 159.418 231.397 159.348 231.396 159.276C231.396 159.203 231.423 159.134 231.473 159.082C231.522 159.03 231.59 159 231.66 159H324.87C324.941 159 325.009 159.029 325.059 159.08C325.108 159.131 325.137 159.201 325.137 159.273C325.137 159.346 325.108 159.416 325.059 159.467C325.009 159.518 324.941 159.547 324.87 159.547Z" fill="#CCCCCC"/>
<path d="M324.87 166.113H231.665C231.63 166.113 231.595 166.107 231.563 166.093C231.531 166.08 231.501 166.06 231.476 166.035C231.451 166.01 231.431 165.98 231.418 165.947C231.404 165.913 231.397 165.878 231.396 165.842C231.396 165.806 231.403 165.77 231.416 165.737C231.429 165.704 231.448 165.674 231.473 165.648C231.497 165.622 231.526 165.602 231.558 165.588C231.591 165.574 231.625 165.566 231.66 165.566H324.87C324.941 165.566 325.009 165.595 325.059 165.646C325.108 165.697 325.137 165.767 325.137 165.84C325.137 165.912 325.108 165.982 325.059 166.033C325.009 166.084 324.941 166.113 324.87 166.113Z" fill="#CCCCCC"/>
<path d="M324.87 172.679H231.665C231.594 172.68 231.526 172.651 231.476 172.601C231.426 172.55 231.397 172.48 231.396 172.408C231.396 172.335 231.423 172.265 231.473 172.214C231.522 172.162 231.59 172.132 231.66 172.132H324.87C324.941 172.132 325.009 172.161 325.059 172.212C325.108 172.263 325.137 172.333 325.137 172.405C325.137 172.478 325.108 172.547 325.059 172.599C325.009 172.65 324.941 172.679 324.87 172.679Z" fill="#CCCCCC"/>
<path d="M324.87 179.245H231.665C231.63 179.245 231.595 179.239 231.563 179.225C231.531 179.212 231.501 179.192 231.476 179.167C231.451 179.141 231.431 179.112 231.418 179.078C231.404 179.045 231.397 179.01 231.396 178.974C231.396 178.938 231.403 178.902 231.416 178.869C231.429 178.836 231.448 178.805 231.473 178.78C231.497 178.754 231.526 178.734 231.558 178.72C231.591 178.706 231.625 178.698 231.66 178.698H324.87C324.941 178.698 325.009 178.727 325.059 178.778C325.108 178.829 325.137 178.899 325.137 178.971C325.137 179.044 325.108 179.114 325.059 179.165C325.009 179.216 324.941 179.245 324.87 179.245Z" fill="#CCCCCC"/>
<path d="M308.519 113.869V149.435H221.785C217.195 149.599 212.728 147.882 209.369 144.664C206.01 141.445 204.033 136.987 203.874 132.27C203.714 127.554 205.384 122.965 208.518 119.514C211.651 116.063 215.99 114.033 220.581 113.868C220.982 113.854 221.384 113.854 221.785 113.868L308.519 113.869Z" fill="#F2F2F2"/>
<path d="M310.65 149.161C310.65 149.524 310.51 149.872 310.26 150.129C310.01 150.386 309.672 150.53 309.318 150.53H220.242C215.403 150.53 210.764 148.555 207.343 145.041C203.922 141.526 202 136.759 202 131.789C202 126.819 203.922 122.052 207.343 118.537C210.764 115.023 215.403 113.048 220.242 113.048H309.319C309.498 113.042 309.676 113.073 309.843 113.139C310.01 113.205 310.162 113.304 310.29 113.432C310.419 113.56 310.521 113.712 310.591 113.882C310.661 114.051 310.697 114.232 310.697 114.416C310.697 114.6 310.661 114.781 310.591 114.951C310.521 115.12 310.419 115.273 310.29 115.4C310.162 115.528 310.01 115.628 309.843 115.694C309.676 115.759 309.498 115.79 309.319 115.784H220.242C216.119 115.798 212.17 117.49 209.259 120.49C206.349 123.49 204.714 127.553 204.714 131.789C204.714 136.024 206.349 140.087 209.259 143.087C212.17 146.087 216.119 147.779 220.242 147.793H309.319C309.673 147.793 310.011 147.938 310.261 148.194C310.511 148.451 310.651 148.799 310.651 149.162L310.65 149.161Z" fill="#3B79C4"/>
<path d="M308.52 122.076H215.314C215.279 122.076 215.245 122.07 215.212 122.056C215.18 122.043 215.15 122.023 215.125 121.998C215.075 121.947 215.046 121.878 215.046 121.805C215.045 121.732 215.072 121.663 215.122 121.611C215.171 121.559 215.239 121.53 215.31 121.529H308.52C308.59 121.529 308.658 121.558 308.708 121.609C308.758 121.66 308.786 121.73 308.786 121.802C308.786 121.875 308.758 121.945 308.708 121.996C308.658 122.047 308.59 122.076 308.52 122.076Z" fill="#CCCCCC"/>
<path d="M308.52 128.642H215.314C215.279 128.642 215.245 128.636 215.212 128.622C215.18 128.609 215.15 128.589 215.125 128.564C215.1 128.538 215.081 128.509 215.067 128.475C215.053 128.442 215.046 128.407 215.046 128.371C215.045 128.335 215.052 128.299 215.065 128.266C215.078 128.233 215.097 128.202 215.122 128.177C215.146 128.151 215.176 128.131 215.208 128.117C215.24 128.103 215.275 128.095 215.31 128.095H308.52C308.555 128.095 308.589 128.102 308.622 128.116C308.654 128.129 308.683 128.15 308.708 128.175C308.733 128.2 308.752 128.231 308.766 128.264C308.779 128.297 308.786 128.332 308.786 128.368C308.786 128.404 308.779 128.44 308.766 128.473C308.752 128.506 308.733 128.536 308.708 128.562C308.683 128.587 308.654 128.607 308.622 128.621C308.589 128.635 308.555 128.642 308.52 128.642Z" fill="#CCCCCC"/>
<path d="M308.52 135.208H215.314C215.279 135.208 215.245 135.202 215.212 135.188C215.18 135.175 215.15 135.155 215.125 135.13C215.075 135.079 215.046 135.009 215.046 134.937C215.045 134.864 215.072 134.794 215.122 134.743C215.171 134.691 215.239 134.661 215.31 134.661H308.52C308.59 134.661 308.658 134.69 308.708 134.741C308.758 134.792 308.786 134.862 308.786 134.934C308.786 135.007 308.758 135.076 308.708 135.128C308.658 135.179 308.59 135.208 308.52 135.208Z" fill="#CCCCCC"/>
<path d="M308.52 141.774H215.314C215.244 141.775 215.176 141.747 215.125 141.696C215.075 141.645 215.046 141.576 215.046 141.503C215.045 141.43 215.072 141.361 215.122 141.309C215.171 141.257 215.239 141.228 215.31 141.227H308.52C308.59 141.227 308.658 141.256 308.708 141.307C308.758 141.358 308.786 141.428 308.786 141.5C308.786 141.573 308.758 141.643 308.708 141.694C308.658 141.745 308.59 141.774 308.52 141.774Z" fill="#CCCCCC"/>
<path d="M293.436 102.004H253.919C253.544 102.003 253.174 102.092 252.838 102.262L242.864 107.392C242.536 107.535 242.256 107.774 242.059 108.08C241.862 108.386 241.757 108.744 241.757 109.11C241.757 109.477 241.862 109.835 242.059 110.141C242.256 110.446 242.536 110.686 242.864 110.829L252.838 115.959C253.174 116.129 253.544 116.217 253.919 116.217H293.436C293.981 116.249 294.516 116.06 294.925 115.69C295.335 115.32 295.586 114.799 295.625 114.24V103.981C295.586 103.422 295.335 102.901 294.926 102.531C294.516 102.161 293.981 101.971 293.436 102.004Z" fill="#090814"/>
<path d="M295.626 103.981V114.241C295.588 114.8 295.336 115.32 294.926 115.69C294.517 116.06 293.982 116.25 293.437 116.217H285.565V102.004H293.437C293.982 101.971 294.517 102.16 294.927 102.531C295.337 102.901 295.588 103.422 295.626 103.981Z" fill="#133D86"/>
</g>
<path d="M69.509 115.689C71.9498 113.671 74.9689 113.295 76.2522 114.85C77.5355 116.405 76.5969 119.301 74.1549 121.32C73.1905 122.14 72.0439 122.717 70.8111 123.003L60.3613 131.425L56.517 126.433L67.2268 118.66C67.7396 117.501 68.5222 116.483 69.509 115.689Z" fill="#FFB6B6"/>
<path d="M9.11006 134.693C9.10477 134.32 9.10826 131.071 11.5114 129.018C14.2721 126.659 18.1674 127.614 19.5337 127.948C22.6898 128.722 22.9486 130.077 25.9125 131.47C31.4577 134.075 24.5098 132.741 27.8094 131.906C28.9515 131.617 45.3824 130.476 49.4724 127.957C57.4269 123.056 62.8468 120.085 62.8468 120.085L66.3899 127.177C66.3899 127.177 61.2666 134.308 54.0559 139.59C46.6594 145.009 42.9611 147.718 37.3408 148.765C36.8568 148.855 24.9533 150.889 15.3661 143.72C13.1793 142.085 9.17251 139.088 9.11006 134.693Z" fill="#96C6EE"/>
<path d="M20.101 116.655C26.9177 116.655 32.4437 111.123 32.4437 104.3C32.4437 97.4775 26.9177 91.9464 20.101 91.9464C13.2843 91.9464 7.75824 97.4775 7.75824 104.3C7.75824 111.123 13.2843 116.655 20.101 116.655Z" fill="#FFB6B6"/>
<path d="M116.765 187.3L104.053 174.277L97.4918 181.127L106.962 193.615L116.356 194.69L116.765 187.3Z" fill="#FFB6B6"/>
<path d="M44.1825 162.878C44.926 162.94 47.2887 163.414 49.547 162.17C51.0882 161.321 51.8786 160.059 52.1456 159.658C55.4576 154.679 68.1697 146.915 79.5785 146.438C82.1622 146.329 83.8628 146.629 85.4085 147.435C87.6003 148.579 88.4753 150.217 91.2566 154.054C92.778 156.153 94.4614 158.131 96.0011 160.216C105.015 172.426 108.433 173.385 108.083 177.299C107.696 181.643 103.016 185.763 99.9059 185.287C98.6321 185.093 98.1388 184.206 96.437 182.411C91.4471 177.149 89.3826 178.121 85.83 174.091C81.6822 169.385 82.2252 165.483 80.0612 165.333C78.0545 165.193 77.2017 168.521 72.9174 172.943C70.957 174.967 69.561 175.895 65.3081 178.848C48.7461 190.348 48.4817 191.156 45.1393 192.074C43.677 192.475 33.2978 195.323 29.6005 190.791C23.8145 183.698 37.4833 162.321 44.1825 162.878Z" fill="#133D86"/>
<path d="M112.879 190.243C113.814 189.823 114.907 189.332 115.258 188.202C115.496 187.437 115.359 186.495 114.867 185.843C114.3 185.092 113.46 184.993 113.494 184.86C113.546 184.657 115.532 184.736 117.713 185.508C118.124 185.654 119.988 186.335 122.36 188.188C124.26 189.673 124.004 189.971 125.195 190.827C128.852 193.454 132.282 191.383 134.261 193.848C135.025 194.799 135.351 196.149 135.029 197.241C134.384 199.433 131.245 200.188 129.53 200.578C125.398 201.516 122.271 200.75 119.006 200.199C107.901 198.326 101.662 200.032 100.827 197.457C100.669 196.97 100.926 197.011 101.782 193.435C102.627 189.905 102.599 188.936 103.319 188.653C104.402 188.227 105.13 190.163 107.859 190.825C110.277 191.412 112.273 190.515 112.879 190.243Z" fill="#133D86"/>
<path d="M94.1661 229.905L90.9546 211.984L81.6816 213.965L82.5123 229.62L89.6818 235.79L94.1661 229.905Z" fill="#FFB6B6"/>
<path d="M47.8091 168.902C48.3896 169.371 50.0788 171.091 52.6451 171.331C54.3965 171.495 55.7585 170.895 56.2046 170.713C61.7383 168.455 76.6127 169.175 86.321 175.192C88.5196 176.555 89.7586 177.759 90.5852 179.295C91.7572 181.473 91.5622 183.32 91.7108 188.059C91.7921 190.651 92.0757 193.233 92.1797 195.824C92.7885 210.994 95.0784 213.708 92.5933 216.75C89.836 220.126 83.652 220.906 81.3452 218.764C80.4005 217.887 80.4897 216.876 80.0884 214.434C78.9117 207.276 76.6581 206.92 75.9797 201.588C75.1876 195.363 77.8259 192.44 76.1199 191.099C74.5378 189.855 71.9647 192.13 65.939 193.381C63.1817 193.953 61.5059 193.936 56.33 193.99C36.1738 194.197 35.5016 194.717 32.2214 193.597C30.7862 193.108 20.6001 189.631 20.0835 183.802C19.2752 174.681 42.5784 164.675 47.8091 168.902Z" fill="#133D86"/>
<path d="M89.2994 230.156C90.3087 230.334 91.4888 230.541 92.4137 229.804C93.0394 229.305 93.4549 228.448 93.4133 227.633C93.3653 226.692 92.7258 226.138 92.8285 226.047C92.9849 225.909 94.5842 227.091 95.9557 228.955C96.2145 229.306 97.3745 230.918 98.2971 233.784C99.0363 236.081 98.6578 236.183 99.1633 237.561C100.715 241.791 104.715 242.005 104.97 245.157C105.069 246.373 104.581 247.673 103.702 248.396C101.938 249.848 98.9174 248.708 97.2794 248.066C93.3345 246.52 91.1767 244.129 88.7838 241.838C80.646 234.047 74.5263 231.951 75.2799 229.351C75.4225 228.859 75.6117 229.038 78.3266 226.56C81.0062 224.114 81.5271 223.296 82.2812 223.467C83.4164 223.724 82.9325 225.734 84.8191 227.816C86.491 229.661 88.6454 230.041 89.2994 230.156Z" fill="#133D86"/>
<path d="M21.7837 106.662C22.2642 104.942 21.6607 104.315 22.2759 103.543C22.2759 103.543 22.5234 103.232 24.7365 102.393C24.0835 98.6012 24.5724 97.96 24.5724 97.96C25.1359 97.2211 26.2646 97.0424 27.033 97.1391C28.6582 97.3435 28.9459 98.814 29.9858 98.781C31.4223 98.7354 33.1452 95.8573 32.6104 93.3627C32.1742 91.3278 30.2933 89.8166 29.8217 90.0788C29.3542 90.3388 27.6713 89.1924 27.0331 89.4221C26.5972 89.579 24.5455 89.3702 24.0803 89.5863C23.5723 89.8222 22.1174 91.291 21.9783 91.106C21.0116 89.8199 21.0322 89.3709 20.4714 89.0937C19.4777 88.6025 18.3973 89.5103 16.5344 90.4072C12.7015 92.2526 11.5792 91.1518 9.80875 92.7059C8.91442 93.491 8.43484 94.9913 7.51218 97.96C6.22184 102.112 5.57669 104.188 6.19985 106.17C6.83537 108.191 7.77124 107.751 9.15259 110.603C10.6902 113.777 10.1603 115.623 11.6132 116.349C12.7361 116.911 14.5407 116.554 15.2221 115.529C16.3887 113.773 13.3735 111.399 14.4019 108.632C15.0332 106.934 16.9806 105.647 18.1748 106.005C19.5252 106.411 19.6246 108.834 20.4714 108.797C21.1966 108.765 21.7 106.962 21.7837 106.662Z" fill="#3F3D56"/>
<path d="M12.4334 118.484C14.9592 115.649 25.2472 118.583 26.2128 123.081C26.61 124.931 25.1438 125.713 25.5567 127.843C26.1606 130.959 29.5801 130.746 32.1183 133.918C35.7218 138.421 32.0095 142.823 36.0553 150.337C36.9198 151.943 37.6485 153.296 39.1721 154.606C42.6682 157.612 45.922 156.581 47.7022 159.368C49.0335 161.452 48.4865 164.02 48.3584 164.622C47.833 167.089 46.409 167.69 45.4056 169.712C43.7362 173.075 45.6264 175.545 45.7337 179.563C45.868 184.591 43.1985 191.561 37.8597 193.848C31.8619 196.417 24.628 192.162 21.1276 187.937C19.0388 185.416 18.4325 183.09 17.5187 180.22C13.4347 167.391 11.1274 168.552 8.00428 158.383C4.43395 146.757 3.73207 133.138 8.00428 128.828C8.57054 128.257 10.1289 126.936 11.1211 124.559C12.4561 121.36 11.3028 119.753 12.4334 118.484Z" fill="#96C6EE"/>
<path d="M49.7541 184.469C51.7124 186.96 52.0159 189.99 50.4323 191.237C48.8487 192.484 45.978 191.476 44.0194 188.984C43.2233 188 42.6744 186.839 42.4186 185.599L34.2545 174.942L38.473 171.721L46.8417 182.115C47.9864 182.656 48.9851 183.463 49.7541 184.469Z" fill="#FFB6B6"/>
<path d="M19.8546 129.287C20.2178 129.206 23.3963 128.546 25.8953 130.482C28.7658 132.705 28.6268 136.717 28.578 138.124C28.4653 141.375 27.1928 141.905 26.4357 145.093C25.0193 151.058 27.7167 156.602 29.207 159.664C29.7228 160.724 31.38 163.968 34.6789 167.462C41.0948 174.256 46.8195 177.831 46.8195 177.831L40.6696 183.303C40.6696 183.303 30.8735 180.314 24.2358 174.327C17.4269 168.185 6.9561 146.454 4.78547 141.16C4.59854 140.704 7.24642 148.116 12.3022 137.259C13.4554 134.782 15.5683 130.245 19.8546 129.287Z" fill="#96C6EE"/>
<path d="M210.964 172.144H164.569C162.601 172.144 161 170.542 161 168.572C161 166.602 162.601 165 164.569 165H210.964C212.932 165 214.533 166.602 214.533 168.572C214.533 170.542 212.932 172.144 210.964 172.144Z" fill="#133D86"/>
<path d="M272.698 172.144H226.303C224.335 172.144 222.734 170.542 222.734 168.572C222.734 166.602 224.335 165 226.303 165H272.698C274.666 165 276.267 166.602 276.267 168.572C276.267 170.542 274.666 172.144 272.698 172.144Z" fill="#96C6EE"/>
<path d="M245.32 62.7558H200.222C199.085 62.7558 198.16 61.8298 198.16 60.6918C198.16 59.5538 199.085 58.6283 200.222 58.6283H245.32C246.457 58.6283 247.382 59.5538 247.382 60.6918C247.382 61.8298 246.457 62.7558 245.32 62.7558Z" fill="#3F3D56"/>
<path d="M269.52 84.7748H176.022C174.885 84.7748 173.96 83.8488 173.96 82.7108C173.96 81.5728 174.885 80.6473 176.022 80.6473H269.52C270.657 80.6473 271.582 81.5728 271.582 82.7108C271.582 83.8488 270.657 84.7748 269.52 84.7748Z" fill="#3F3D56"/>
<path d="M80.1459 110.063C83.6813 106.891 86.7536 103.219 89.2693 99.1888C89.9334 98.1251 88.2542 97.1484 87.5927 98.2079C85.1606 102.104 82.1905 105.622 78.7729 108.688C77.8404 109.525 79.2174 110.896 80.1459 110.063Z" fill="#3F3D56"/>
<path d="M72.4142 106.38L85.2244 93.3061C86.1001 92.4124 84.7282 91.0371 83.8514 91.9319L71.0412 105.005C70.1656 105.899 71.5374 107.274 72.4142 106.38Z" fill="#3F3D56"/>
<path d="M87.1143 114.473C90.3332 110.904 93.0732 106.921 95.2304 102.624C95.79 101.51 94.1156 100.524 93.5538 101.643C91.4696 105.795 88.852 109.65 85.7413 113.099C84.9058 114.025 86.2748 115.404 87.1143 114.473Z" fill="#3F3D56"/>
<path d="M92.1023 124.057C92.0228 124.057 91.9435 124.054 91.8637 124.049C87.1669 123.747 71.0957 121.471 61.5014 104.867C60.7107 103.499 60.8665 101.761 61.8887 100.542L79.6571 79.3524C80.3837 78.4858 81.5061 77.9865 82.6429 78.0003C83.4286 78.019 85.2889 78.2176 85.6502 79.653C87.7847 88.1333 96.7978 98.1044 107.637 99.4261C108.736 99.5597 109.618 100.541 109.997 102.05C110.292 103.225 110.019 104.437 109.248 105.374L95.0137 122.674C94.2906 123.553 93.2295 124.057 92.1023 124.057ZM82.5747 78.8527C81.7064 78.8527 80.8619 79.242 80.3098 79.9004L62.5417 101.09C61.7487 102.036 61.6272 103.382 62.2388 104.439C71.6216 120.677 87.3283 122.902 91.9186 123.198C92.8559 123.26 93.756 122.861 94.3559 122.132L108.59 104.832C109.188 104.106 109.399 103.168 109.17 102.258C108.947 101.367 108.4 100.378 107.534 100.272C96.3364 98.9072 87.0273 88.6147 84.824 79.8612C84.6455 79.1525 83.5711 78.8756 82.6252 78.8531C82.6084 78.8527 82.5915 78.8527 82.5747 78.8527Z" fill="#3F3D56"/>
<path d="M79.9152 93.3094C87.0481 93.3094 92.8304 87.6437 92.8304 80.6547C92.8304 73.6657 87.0481 68 79.9152 68C72.7823 68 67 73.6657 67 80.6547C67 87.6437 72.7823 93.3094 79.9152 93.3094Z" fill="#133D86"/>
<path d="M86.6353 86.6575C84.649 81.7695 82.6627 76.8814 80.6764 71.9933C80.4021 71.3182 79.5427 71.2943 79.2749 71.9933C77.3124 77.1181 76.0299 82.4655 75.4133 87.9178C75.3083 88.8465 76.7625 88.839 76.8666 87.9178C77.1079 85.7842 77.4661 83.6666 77.926 81.5716C79.5627 81.6575 81.2129 81.4737 82.7924 81.036C83.6062 83.0388 84.4201 85.0415 85.2339 87.0442C85.5816 87.9 86.9881 87.5258 86.6353 86.6575ZM78.2555 80.1334C78.745 78.1278 79.3319 76.146 80.0129 74.1961L82.2404 79.6776C80.9357 80.0203 79.6014 80.1728 78.2555 80.1334Z" fill="white"/>
</g>
<defs>
<clipPath id="clip0_38_3">
<rect width="335" height="284" fill="white"/>
</clipPath>
</defs>
</svg>
