<svg width="2339" height="612" viewBox="0 0 2339 612" fill="none" xmlns="http://www.w3.org/2000/svg">
<path d="M344.526 430.792C371.966 408.823 407.638 374.039 430.505 344.748C438.432 359.089 454.652 390.882 456.116 403.331L403.065 456.422C390.723 454.284 358.404 439.492 344.526 430.792Z" fill="#618DC2"/>
<path d="M66.4637 255.042L108.539 196.458C107.014 179.066 107.625 142.452 124.089 125.975C146.956 103.091 178.632 107.231 196.031 108.506L254.887 66.4766C210.009 50 124.089 30.7773 73.7813 95.7683C26.2183 160.759 66.4637 255.042 66.4637 255.042Z" fill="#1C398E"/>
<path d="M255.802 544.298C207.324 568.097 50 587.319 50 432.623C50 277.927 265.249 50 435.993 50C606.738 50 552.157 246.804 544.839 255.042L501.85 197.374C505.508 182.423 506.789 146.48 482.642 122.314C472.58 112.245 380.198 60.2122 204.58 238.565C66.4642 399.67 112.198 472.899 125.003 485.714C137.809 498.529 150.431 502.191 197.263 502.191L255.802 544.298Z" fill="#618DC2"/>
<path d="M154.273 401.5C167.078 434.454 418.768 653.226 533.863 518.667C624.687 412.485 472.58 203.781 403.065 154.352C387.82 158.929 354.77 170.462 344.526 179.982C427.761 241.311 546.669 409.739 486.3 485.714C445.14 526.906 318.915 507.683 179.884 343.832C170.371 358.478 158.846 388.38 154.273 401.5Z" fill="#1C398E"/>
<path d="M1082.5 120.25L1017.5 142.75V313.25C1017.5 377.25 1071.5 442.75 1151.5 442.75V378.75C1110.61 378.75 1091.74 348.083 1084.44 327.038C1083 322.91 1082.5 318.537 1082.5 314.167V258.25H1151.5V197.25H1082.5V120.25Z" fill="#1C398E"/>
<path d="M1303 376.25C1327.02 376.25 1346.5 356.774 1346.5 332.75V197.25H1411.5V333.75C1411.5 393.673 1362.92 442.25 1303 442.25C1243.08 442.25 1194.5 393.673 1194.5 333.75V197.25H1259.5V332.75C1259.5 356.774 1278.98 376.25 1303 376.25Z" fill="#1C398E"/>
<path fill-rule="evenodd" clip-rule="evenodd" d="M1585 442.25C1653.21 442.25 1708 386.457 1708 318.25V107.75L1643 86.25V209.689C1625.71 200.473 1605.96 195.25 1585 195.25C1516.79 195.25 1461.5 250.543 1461.5 318.75C1461.5 386.957 1516.79 442.25 1585 442.25ZM1584.5 377.25C1616.53 377.25 1642.5 351.283 1642.5 319.25C1642.5 287.217 1616.53 261.25 1584.5 261.25C1552.47 261.25 1526.5 287.217 1526.5 319.25C1526.5 351.283 1552.47 377.25 1584.5 377.25Z" fill="#1C398E"/>
<path fill-rule="evenodd" clip-rule="evenodd" d="M1881 442.25C1949.21 442.25 2004 386.457 2004 318.25V107.75L1939 86.25V209.689C1921.71 200.473 1901.96 195.25 1881 195.25C1812.79 195.25 1757.5 250.543 1757.5 318.75C1757.5 386.957 1812.79 442.25 1881 442.25ZM1880.5 377.25C1912.53 377.25 1938.5 351.283 1938.5 319.25C1938.5 287.217 1912.53 261.25 1880.5 261.25C1848.47 261.25 1822.5 287.217 1822.5 319.25C1822.5 351.283 1848.47 377.25 1880.5 377.25Z" fill="#1C398E"/>
<path d="M2106 197.25H2035.5L2131.5 416.25L2087 525.75H2157L2289 197.75H2219L2165 334.75L2106 197.25Z" fill="#1C398E"/>
<path d="M755.738 327.063L712 379.25C742.253 431.65 811.605 442.75 842.5 441.75C929.7 441.75 956.167 377.137 958.5 344.831C958.5 283.907 933 267.75 881 244.75C832 225.25 797.5 214.75 797.5 193.25C797.5 167.65 824.5 162.583 838 163.25C869 163.25 901 188.25 914 200.75L955 147.25C914.2 106.45 860 97.25 838 97.75C752 97.75 728.833 161.75 728 193.75C728 269.35 813 293.472 851.973 307.83C870.973 314.83 889.473 326.831 889.473 344.831C889.473 377.286 814.204 403.678 755.738 327.063Z" fill="#1C398E"/>
<path d="M712 510.75H2004V525.75H712V510.75Z" fill="#618DC2"/>
</svg>
