<svg width="1577" height="440" viewBox="0 0 1577 440" fill="none" xmlns="http://www.w3.org/2000/svg">
<path d="M370.5 34.25L305.5 56.75V227.25C305.5 291.25 359.5 356.75 439.5 356.75V292.75C398.611 292.75 379.735 262.083 372.435 241.038C371.003 236.91 370.5 232.537 370.5 228.167V172.25H439.5V111.25H370.5V34.25Z" fill="#1C398E"/>
<path d="M591 290.25C615.024 290.25 634.5 270.774 634.5 246.75V111.25H699.5V247.75C699.5 307.673 650.923 356.25 591 356.25C531.077 356.25 482.5 307.673 482.5 247.75V111.25H547.5V246.75C547.5 270.774 566.976 290.25 591 290.25Z" fill="#1C398E"/>
<path fill-rule="evenodd" clip-rule="evenodd" d="M873 356.25C941.207 356.25 996 300.457 996 232.25V21.75L931 0.25V123.689C913.707 114.473 893.963 109.25 873 109.25C804.793 109.25 749.5 164.543 749.5 232.75C749.5 300.957 804.793 356.25 873 356.25ZM872.5 291.25C904.533 291.25 930.5 265.283 930.5 233.25C930.5 201.217 904.533 175.25 872.5 175.25C840.467 175.25 814.5 201.217 814.5 233.25C814.5 265.283 840.467 291.25 872.5 291.25Z" fill="#1C398E"/>
<path fill-rule="evenodd" clip-rule="evenodd" d="M1169 356.25C1237.21 356.25 1292 300.457 1292 232.25V21.75L1227 0.25V123.689C1209.71 114.473 1189.96 109.25 1169 109.25C1100.79 109.25 1045.5 164.543 1045.5 232.75C1045.5 300.957 1100.79 356.25 1169 356.25ZM1168.5 291.25C1200.53 291.25 1226.5 265.283 1226.5 233.25C1226.5 201.217 1200.53 175.25 1168.5 175.25C1136.47 175.25 1110.5 201.217 1110.5 233.25C1110.5 265.283 1136.47 291.25 1168.5 291.25Z" fill="#1C398E"/>
<path d="M1394 111.25H1323.5L1419.5 330.25L1375 439.75H1445L1577 111.75H1507L1453 248.75L1394 111.25Z" fill="#1C398E"/>
<path d="M43.7381 241.063L0 293.25C30.2532 345.65 99.6055 356.75 130.5 355.75C217.7 355.75 244.167 291.137 246.5 258.831C246.5 197.907 221 181.75 169 158.75C120 139.25 85.5 128.75 85.5 107.25C85.5 81.65 112.5 76.5833 126 77.25C157 77.25 189 102.25 202 114.75L243 61.25C202.2 20.45 148 11.25 126 11.75C40 11.75 16.8333 75.75 16 107.75C16 183.35 101 207.472 139.973 221.83C158.973 228.83 177.473 240.831 177.473 258.831C177.473 291.286 102.204 317.678 43.7381 241.063Z" fill="#1C398E"/>
</svg>
