<svg width="512" height="512" viewBox="0 0 512 512" fill="none" xmlns="http://www.w3.org/2000/svg">
<path d="M294.526 380.792C321.966 358.823 357.638 324.039 380.505 294.748C388.432 309.089 404.652 340.882 406.116 353.331L353.065 406.422C340.723 404.284 308.404 389.492 294.526 380.792Z" fill="#618DC2"/>
<path d="M16.4637 205.042L58.5388 146.458C57.0144 129.066 57.6246 92.452 74.0887 75.9754C96.9556 53.0912 128.632 57.2309 146.031 58.5062L204.887 16.4766C160.009 -3.125e-05 74.0887 -19.2227 23.7813 45.7683C-23.7817 110.759 16.4637 205.042 16.4637 205.042Z" fill="#1C398E"/>
<path d="M205.802 494.298C157.324 518.097 0 537.319 0 382.623C0 227.927 215.249 0 385.993 0C556.738 0 502.157 196.804 494.839 205.042L451.85 147.374C455.508 132.423 456.789 96.4796 432.642 72.3139C422.58 62.2449 330.198 10.2122 154.58 188.565C16.4642 349.67 62.1979 422.899 75.0034 435.714C87.8088 448.529 100.431 452.191 147.263 452.191L205.802 494.298Z" fill="#618DC2"/>
<path d="M104.273 351.5C117.078 384.454 368.768 603.226 483.863 468.667C574.687 362.485 422.58 153.781 353.065 104.352C337.82 108.929 304.77 120.462 294.526 129.982C377.761 191.311 496.669 359.739 436.3 435.714C395.14 476.906 268.915 457.683 129.884 293.832C120.371 308.478 108.846 338.38 104.273 351.5Z" fill="#1C398E"/>
</svg>
